<svg width="22" height="27" viewBox="0 0 22 27" fill="none" xmlns="http://www.w3.org/2000/svg">
<path d="M5.54969 1.7582C8.98304 -0.236722 13.2032 -0.201853 16.6043 1.84954C19.972 3.94271 22.0188 7.67841 21.9999 11.697C21.9214 15.6892 19.7266 19.4418 16.9832 22.3428C15.3997 24.0248 13.6284 25.512 11.7053 26.7742C11.5073 26.8887 11.2903 26.9654 11.0652 27.0004C10.8485 26.9912 10.6375 26.9272 10.4512 26.8141C7.51524 24.9176 4.93953 22.4968 2.84795 19.6681C1.09778 17.3068 0.103454 14.4541 0 11.4974L0.00783549 11.0672C0.150735 7.20772 2.23896 3.68188 5.54969 1.7582ZM12.4257 8.19792C11.03 7.60464 9.42078 7.92697 8.3495 9.01439C7.27821 10.1018 6.95615 11.7398 7.53369 13.1636C8.11122 14.5874 9.47443 15.5162 10.9868 15.5162C11.9776 15.5233 12.93 15.1264 13.6318 14.414C14.3337 13.7016 14.7266 12.7328 14.7231 11.7236C14.7284 10.183 13.8214 8.79119 12.4257 8.19792Z" fill="white"/>
</svg>
